<svg aria-hidden="true" style="width:0;height:0;position:absolute" xmlns="http://www.w3.org/2000/svg"><defs><symbol id="icon-logo" viewBox="0 0 24 24"><path d="m2.958 15.057 8.083-13.068.48-.506 6.176 4.118.043 2.486 1.507 2.46-6.66 10.557-9.629-6.047Z"/><path d="m16.226 17.91-10.64-6.648m2.935-4.813 10.639 6.648M7.972 19.398l8.802-14.437m3.608 6.13c-2.28-1.424-3.175-2.537-1.708-4.943l-7.22-4.512-8.801 14.438 10.64 6.648 7.09-11.63Z" stroke-width="2" stroke-linecap="round" stroke-linejoin="round"/></symbol><symbol id="icon-down" viewBox="0 0 22 22"><path d="M11.65 12.283a.917.917 0 0 1-1.3 0l-4.2-4.207a.917.917 0 1 0-1.3 1.292l4.207 4.208a2.75 2.75 0 0 0 3.886 0l4.208-4.208a.917.917 0 0 0-1.302-1.292l-4.198 4.207Z"/></symbol><symbol id="icon-menu" viewBox="0 0 32 32"><path d="M4 16h24M4 8h24M4 24h24" stroke-width="2.5" stroke-linecap="round" stroke-linejoin="round"/></symbol><symbol id="icon-chocolate" viewBox="0 0 32 32"><path d="m13.822 2.413 7.527 7.536.08-.08a.856.856 0 0 1 1.184-.013l.006.006.867.867c.305.305.315.77.083 1.094l-.004.007-.143.192 6.16 6.16c.55.55.55 1.43 0 1.98l-9.43 9.43c-.55.55-1.43.55-1.98 0l-4.447-4.447a.841.841 0 0 1-1.256.071l-2.6-2.6a.856.856 0 0 1-.013-1.184l.006-.007.077-.076-7.527-7.527c-.55-.55-.55-1.43 0-1.98l9.43-9.43c.55-.55 1.43-.55 1.98 0v.001Zm6.582 8.48-1.756-1.755a.592.592 0 0 0-.85 0l-3.58 3.58a.606.606 0 0 0 0 .86l1.749 1.749.61-.61-1.565-1.565 3.21-3.22 1.569 1.574.613-.613Zm-5.076 5.072-1.754-1.754a.592.592 0 0 0-.85 0l-3.58 3.58-.005.005-.005.005c-.24.23-.24.61 0 .85l1.752 1.752.616-.616-1.57-1.564 3.22-3.21 1.564 1.563.612-.611ZM8.822 8.193l3.58 3.58c.24.24.62.24.85-.01l3.58-3.58a.579.579 0 0 0 .18-.42h.01c0-.15-.06-.31-.18-.43l-3.58-3.58a.604.604 0 0 0-.86 0l-3.58 3.59c-.24.23-.24.61 0 .85Zm-5.07 5.07 3.58 3.58c.24.24.62.24.85 0l3.58-3.58a.58.58 0 0 0 .18-.43h.01c0-.16-.06-.31-.18-.43l-3.58-3.58a.592.592 0 0 0-.85 0l-3.59 3.59c-.24.23-.24.61 0 .85Zm6.933 8.754 2.362 2.363 9.636-13.04-.655-.655-11.343 11.332Z"/><path d="m13.822 2.413 7.527 7.536.08-.08a.856.856 0 0 1 1.184-.013l.006.006.867.867c.305.305.315.77.083 1.094l-.004.007-.143.192 6.16 6.16c.55.55.55 1.43 0 1.98l-9.43 9.43c-.55.55-1.43.55-1.98 0l-4.447-4.447a.841.841 0 0 1-1.256.071l-2.6-2.6a.856.856 0 0 1-.013-1.184l.006-.007.077-.076-7.527-7.527c-.55-.55-.55-1.43 0-1.98l9.43-9.43c.55-.55 1.43-.55 1.98 0v.001Zm6.582 8.48-1.756-1.755a.592.592 0 0 0-.85 0l-3.58 3.58a.606.606 0 0 0 0 .86l1.749 1.749.61-.61-1.565-1.565 3.21-3.22 1.569 1.574.613-.613Zm-5.076 5.072-1.754-1.754a.592.592 0 0 0-.85 0l-3.58 3.58-.005.005-.005.005c-.24.23-.24.61 0 .85l1.752 1.752.616-.616-1.57-1.564 3.22-3.21 1.564 1.563.612-.611ZM8.822 8.193l3.58 3.58c.24.24.62.24.85-.01l3.58-3.58a.579.579 0 0 0 .18-.42h.01c0-.15-.06-.31-.18-.43l-3.58-3.58a.604.604 0 0 0-.86 0l-3.58 3.59c-.24.23-.24.61 0 .85Zm-5.07 5.07 3.58 3.58c.24.24.62.24.85 0l3.58-3.58a.58.58 0 0 0 .18-.43h.01c0-.16-.06-.31-.18-.43l-3.58-3.58a.592.592 0 0 0-.85 0l-3.59 3.59c-.24.23-.24.61 0 .85Zm6.933 8.754 2.362 2.363 9.636-13.04-.655-.655-11.343 11.332Z"/></symbol><symbol id="icon-coin" viewBox="0 0 28 28"><path d="M14 .667C6.667.667.667 6.667.667 14s6 13.333 13.333 13.333 13.333-6 13.333-13.333S21.333.667 14 .667Zm0 24c-5.867 0-10.667-4.8-10.667-10.667S8.133 3.333 14 3.333 24.667 8.133 24.667 14 19.867 24.667 14 24.667Z"/><path d="M15.733 12.667h-3.466c-.667 0-1.2-.534-1.2-1.2 0-.667.533-1.2 1.2-1.2H17.2c.8 0 1.334-.534 1.334-1.334S18 7.6 17.2 7.6h-1.866V6.4c0-.8-.534-1.333-1.334-1.333S12.667 5.6 12.667 6.4v1.2h-.4A3.87 3.87 0 0 0 8.4 11.467a3.87 3.87 0 0 0 3.867 3.866H15.6c.667 0 1.2.534 1.2 1.2 0 .667-.533 1.2-1.2 1.2h-4.933c-.8 0-1.334.534-1.334 1.334s.534 1.333 1.334 1.333h2v1.2c0 .8.533 1.333 1.333 1.333.8 0 1.334-.533 1.334-1.333v-1.2h.4a3.87 3.87 0 0 0 3.866-3.867 3.87 3.87 0 0 0-3.867-3.866Z"/></symbol><symbol id="icon-spoon" viewBox="0 0 32 32"><path d="M15.452 14.106a5.156 5.156 0 0 1-1.177-3.282c0-4.324 5.181-8.642 10.362-8.642a5.183 5.183 0 0 1 5.181 5.182c0 5.182-4.317 10.364-8.646 10.364a5.154 5.154 0 0 1-3.281-1.177L5.133 29.312a1.73 1.73 0 0 1-2.445-2.445l12.764-12.761Z"/></symbol><symbol id="icon-instagram" viewBox="0 0 24 24"><path d="M17 2H7a5 5 0 0 0-5 5v10a5 5 0 0 0 5 5h10a5 5 0 0 0 5-5V7a5 5 0 0 0-5-5Z" stroke-width="2" stroke-linecap="round" stroke-linejoin="round"/><path d="M16 11.37a4 4 0 1 1-7.914 1.173A4 4 0 0 1 16 11.37Z" stroke-width="2" stroke-linecap="round" stroke-linejoin="round"/><path d="M16 11.37a4 4 0 1 1-7.914 1.173A4 4 0 0 1 16 11.37ZM17.5 6.5h.01M17.5 6.5h.01" stroke-width="2" stroke-linecap="round" stroke-linejoin="round"/></symbol><symbol id="icon-twitter" viewBox="0 0 24 24"><path d="M23 3a10.9 10.9 0 0 1-3.14 1.53 4.48 4.48 0 0 0-7.86 3v1a10.66 10.66 0 0 1-5.069-1.135c-1.57-.79-3.42-2.672-4.431-4.11C2.5 3.285-1 13 8 17a11.64 11.64 0 0 1-7 2c9 5 20 0 20-11.5 0-.279-.028-.556-.08-.83A7.72 7.72 0 0 0 23 3Z" stroke-width="2" stroke-linecap="round" stroke-linejoin="round"/></symbol><symbol id="icon-close" viewBox="0 0 28 28"><path d="M21 7 7 21M7 7l14 14" stroke-width="2" stroke-linecap="round" stroke-linejoin="round"/></symbol><symbol id="icon-flag" viewBox="0 0 32 25"><g clip-path="url('#clip0_14923_7588')"><path d="M31.832 1.058H.242v23.509h31.59V1.058Z" fill="gold"/><path fill-rule="evenodd" clip-rule="evenodd" d="M.243 1.058h31.589v11.754H.242V1.058Z" fill="#0057b7"/></g><defs><clipPath id="clip0_14923_7588"><path fill="#fff" transform="translate(0 .8)" d="M0 0h32v24H0z"/></clipPath></defs></symbol><symbol id="icon-mastercard" viewBox="0 0 32 20"><path fill-rule="evenodd" clip-rule="evenodd" d="M16 16.834a9.083 9.083 0 0 1-5.935 2.199c-5.054 0-9.15-4.12-9.15-9.204 0-5.083 4.096-9.204 9.15-9.204 2.264 0 4.337.828 5.935 2.199A9.083 9.083 0 0 1 21.935.625c5.054 0 9.15 4.12 9.15 9.204 0 5.083-4.096 9.204-9.15 9.204A9.083 9.083 0 0 1 16 16.834Z" fill="#ed0006"/><path fill-rule="evenodd" clip-rule="evenodd" d="M16 16.834a9.206 9.206 0 0 0 3.215-7.005A9.206 9.206 0 0 0 16 2.824 9.083 9.083 0 0 1 21.935.625c5.054 0 9.15 4.12 9.15 9.204 0 5.083-4.096 9.204-9.15 9.204A9.083 9.083 0 0 1 16 16.834Z" fill="#f9a000"/><path fill-rule="evenodd" clip-rule="evenodd" d="M16 16.834a9.206 9.206 0 0 0 3.215-7.005A9.206 9.206 0 0 0 16 2.824a9.206 9.206 0 0 0-3.215 7.005A9.205 9.205 0 0 0 16 16.834Z" fill="#ff5e00"/></symbol><symbol id="icon-ellipse" viewBox="0 0 28 13"><path d="M21.5 0h-15a6.5 6.5 0 0 0 0 13h15a6.5 6.5 0 1 0 0-13Z"/></symbol><symbol id="icon-circle" viewBox="0 0 13 13"><path d="M6.5 13a6.5 6.5 0 1 0 0-13 6.5 6.5 0 0 0 0 13Z" fill-opacity=".1"/></symbol></defs></svg>