<svg aria-hidden="true" style="position:absolute;width:0;height:0" xmlns="http://www.w3.org/2000/svg">
  <defs>

  <!-- Home Icons -->
    <symbol id="icon-logo" width="24" height="24" viewBox="0 0 24 24">
      <path d="M2.95799 15.0568L11.0406 1.9886L11.5206 1.48303L17.6974 5.6014L17.7397 8.08665L19.2472 10.5463L12.5874 21.1038L2.95799 15.0568Z"/>
      <path d="M16.2259 17.9097L5.5868 11.2616M8.52069 6.44905L19.1598 13.0971M7.97248 19.3982L16.7742 4.96051M20.3823 11.0919C18.1025 9.6673 17.2071 8.55395 18.674 6.14767L11.4546 1.63647L2.6529 16.0742L13.2921 22.7223L20.3823 11.0919Z" stroke-width="2" stroke-linecap="round" stroke-linejoin="round"/>
    </symbol>

    <symbol id="icon-down" width="14" height="8" viewBox="0 0 14 8">
      <path d="M7.65076 5.28338C7.56554 5.3693 7.46415 5.43749 7.35245 5.48403C7.24075 5.53057 7.12093 5.55453 6.99992 5.55453C6.87891 5.55453 6.7591 5.53057 6.64739 5.48403C6.53569 5.43749 6.4343 5.3693 6.34909 5.28338L2.15075 1.07588C2.06553 0.989962 1.96415 0.921767 1.85244 0.875229C1.74074 0.828691 1.62092 0.804731 1.49991 0.804731C1.3789 0.804731 1.25909 0.828691 1.14738 0.875229C1.03568 0.921767 0.934296 0.989962 0.84908 1.07588C0.678349 1.24763 0.58252 1.47996 0.58252 1.72213C0.58252 1.9643 0.678349 2.19663 0.84908 2.36838L5.05659 6.57588C5.57221 7.09087 6.27117 7.38013 6.99992 7.38013C7.72867 7.38013 8.42763 7.09087 8.94326 6.57588L13.1508 2.36838C13.3201 2.19764 13.4156 1.96719 13.4166 1.72671C13.4173 1.60607 13.3942 1.48648 13.3486 1.3748C13.3029 1.26311 13.2357 1.16153 13.1508 1.07588C13.0655 0.989962 12.9642 0.921767 12.8525 0.875229C12.7408 0.828691 12.6209 0.804731 12.4999 0.804731C12.3789 0.804731 12.2591 0.828691 12.1474 0.875229C12.0357 0.921767 11.9343 0.989962 11.8491 1.07588L7.65076 5.28338Z"/>    
    </symbol>

    <symbol id="icon-menu" width="32" height="32" viewBox="0 0 32 32">
      <path d="M4 16H28M4 8H28M4 24H28" stroke-width="2.5" stroke-linecap="round" stroke-linejoin="round"/>
    </symbol>

  <!-- Content Icons -->
    <symbol id="icon-chocolate" width="32" height="32" viewBox="0 0 32 32">
      <path d="M13.822 2.41301L21.349 9.94901L21.429 9.86901C21.5867 9.71469 21.7978 9.6272 22.0184 9.62477C22.239 9.62235 22.452 9.70519 22.613 9.85601L22.619 9.86201L23.486 10.729C23.791 11.034 23.801 11.499 23.569 11.823L23.565 11.83L23.422 12.022L29.582 18.182C30.132 18.732 30.132 19.612 29.582 20.162L20.152 29.592C19.602 30.142 18.722 30.142 18.172 29.592L13.725 25.145C13.6512 25.2381 13.5584 25.3145 13.4529 25.3692C13.3474 25.4239 13.2316 25.4556 13.1129 25.4623C12.9943 25.469 12.8756 25.4505 12.7646 25.4081C12.6536 25.3656 12.5529 25.3002 12.469 25.216L9.86901 22.616C9.71469 22.4584 9.6272 22.2472 9.62477 22.0266C9.62235 21.806 9.70519 21.593 9.85601 21.432L9.86201 21.425L9.93901 21.349L2.41201 13.822C1.86201 13.272 1.86201 12.392 2.41201 11.842L11.842 2.41201C12.392 1.86201 13.272 1.86201 13.822 2.41201V2.41301ZM20.404 10.893L18.648 9.13801C18.5928 9.0811 18.5268 9.03585 18.4538 9.00495C18.3808 8.97405 18.3023 8.95813 18.223 8.95813C18.1437 8.95813 18.0653 8.97405 17.9923 9.00495C17.9193 9.03585 17.8532 9.0811 17.798 9.13801L14.218 12.718C14.1613 12.7743 14.1163 12.8413 14.0856 12.9151C14.0548 12.9889 14.039 13.0681 14.039 13.148C14.039 13.2279 14.0548 13.3071 14.0856 13.3809C14.1163 13.4547 14.1613 13.5217 14.218 13.578L15.967 15.327L16.577 14.717L15.012 13.152L18.222 9.93201L19.791 11.506L20.404 10.893ZM15.328 15.965L13.574 14.211C13.5188 14.1541 13.4528 14.1088 13.3798 14.0779C13.3068 14.047 13.2283 14.0311 13.149 14.0311C13.0697 14.0311 12.9913 14.047 12.9183 14.0779C12.8453 14.1088 12.7792 14.1541 12.724 14.211L9.14401 17.791L9.13901 17.796L9.13401 17.801C8.89401 18.031 8.89401 18.411 9.13401 18.651L10.886 20.403L11.502 19.787L9.93201 18.223L13.152 15.013L14.716 16.576L15.328 15.965ZM8.82201 8.19301L12.402 11.773C12.642 12.013 13.022 12.013 13.252 11.763L16.832 8.18301C16.8889 8.12884 16.9342 8.06368 16.9651 7.99148C16.9961 7.91929 17.012 7.84156 17.012 7.76301H17.022C17.022 7.61301 16.962 7.45301 16.842 7.33301L13.262 3.75301C13.2058 3.69617 13.1388 3.65105 13.065 3.62025C12.9912 3.58946 12.912 3.5736 12.832 3.5736C12.752 3.5736 12.6729 3.58946 12.599 3.62025C12.5252 3.65105 12.4583 3.69617 12.402 3.75301L8.82201 7.34301C8.58201 7.57301 8.58201 7.95301 8.82201 8.19301ZM3.75201 13.263L7.33201 16.843C7.57201 17.083 7.95201 17.083 8.18201 16.843L11.762 13.263C11.8201 13.2077 11.8661 13.1409 11.8971 13.0669C11.9281 12.9929 11.9434 12.9132 11.942 12.833H11.952C11.952 12.673 11.892 12.523 11.772 12.403L8.19201 8.82301C8.13683 8.7661 8.07077 8.72085 7.99776 8.68995C7.92476 8.65905 7.84629 8.64313 7.76701 8.64313C7.68774 8.64313 7.60927 8.65905 7.53626 8.68995C7.46326 8.72085 7.3972 8.7661 7.34201 8.82301L3.75201 12.413C3.51201 12.643 3.51201 13.023 3.75201 13.263ZM10.685 22.017L13.047 24.38L22.683 11.34L22.028 10.685L10.685 22.017Z"/>
      <path d="M13.822 2.41301L21.349 9.94901L21.429 9.86901C21.5867 9.71469 21.7978 9.6272 22.0184 9.62477C22.239 9.62235 22.452 9.70519 22.613 9.85601L22.619 9.86201L23.486 10.729C23.791 11.034 23.801 11.499 23.569 11.823L23.565 11.83L23.422 12.022L29.582 18.182C30.132 18.732 30.132 19.612 29.582 20.162L20.152 29.592C19.602 30.142 18.722 30.142 18.172 29.592L13.725 25.145C13.6512 25.2381 13.5584 25.3145 13.4529 25.3692C13.3474 25.4239 13.2316 25.4556 13.1129 25.4623C12.9943 25.469 12.8756 25.4505 12.7646 25.4081C12.6536 25.3656 12.5529 25.3002 12.469 25.216L9.86901 22.616C9.71469 22.4584 9.6272 22.2472 9.62477 22.0266C9.62235 21.806 9.70519 21.593 9.85601 21.432L9.86201 21.425L9.93901 21.349L2.41201 13.822C1.86201 13.272 1.86201 12.392 2.41201 11.842L11.842 2.41201C12.392 1.86201 13.272 1.86201 13.822 2.41201V2.41301ZM20.404 10.893L18.648 9.13801C18.5928 9.0811 18.5268 9.03585 18.4538 9.00495C18.3808 8.97405 18.3023 8.95813 18.223 8.95813C18.1437 8.95813 18.0653 8.97405 17.9923 9.00495C17.9193 9.03585 17.8532 9.0811 17.798 9.13801L14.218 12.718C14.1613 12.7743 14.1163 12.8413 14.0856 12.9151C14.0548 12.9889 14.039 13.0681 14.039 13.148C14.039 13.2279 14.0548 13.3071 14.0856 13.3809C14.1163 13.4547 14.1613 13.5217 14.218 13.578L15.967 15.327L16.577 14.717L15.012 13.152L18.222 9.93201L19.791 11.506L20.404 10.893ZM15.328 15.965L13.574 14.211C13.5188 14.1541 13.4528 14.1088 13.3798 14.0779C13.3068 14.047 13.2283 14.0311 13.149 14.0311C13.0697 14.0311 12.9913 14.047 12.9183 14.0779C12.8453 14.1088 12.7792 14.1541 12.724 14.211L9.14401 17.791L9.13901 17.796L9.13401 17.801C8.89401 18.031 8.89401 18.411 9.13401 18.651L10.886 20.403L11.502 19.787L9.93201 18.223L13.152 15.013L14.716 16.576L15.328 15.965ZM8.82201 8.19301L12.402 11.773C12.642 12.013 13.022 12.013 13.252 11.763L16.832 8.18301C16.8889 8.12884 16.9342 8.06368 16.9651 7.99148C16.9961 7.91929 17.012 7.84156 17.012 7.76301H17.022C17.022 7.61301 16.962 7.45301 16.842 7.33301L13.262 3.75301C13.2058 3.69617 13.1388 3.65105 13.065 3.62025C12.9912 3.58946 12.912 3.5736 12.832 3.5736C12.752 3.5736 12.6729 3.58946 12.599 3.62025C12.5252 3.65105 12.4583 3.69617 12.402 3.75301L8.82201 7.34301C8.58201 7.57301 8.58201 7.95301 8.82201 8.19301ZM3.75201 13.263L7.33201 16.843C7.57201 17.083 7.95201 17.083 8.18201 16.843L11.762 13.263C11.8201 13.2077 11.8661 13.1409 11.8971 13.0669C11.9281 12.9929 11.9434 12.9132 11.942 12.833H11.952C11.952 12.673 11.892 12.523 11.772 12.403L8.19201 8.82301C8.13683 8.7661 8.07077 8.72085 7.99776 8.68995C7.92476 8.65905 7.84629 8.64313 7.76701 8.64313C7.68774 8.64313 7.60927 8.65905 7.53626 8.68995C7.46326 8.72085 7.3972 8.7661 7.34201 8.82301L3.75201 12.413C3.51201 12.643 3.51201 13.023 3.75201 13.263ZM10.685 22.017L13.047 24.38L22.683 11.34L22.028 10.685L10.685 22.017Z"/>
    </symbol>

    <symbol id="icon-coin" width="28" height="28" viewBox="0 0 28 28">
      <path d="M14.0001 0.666748C6.66675 0.666748 0.666748 6.66675 0.666748 14.0001C0.666748 21.3334 6.66675 27.3334 14.0001 27.3334C21.3334 27.3334 27.3334 21.3334 27.3334 14.0001C27.3334 6.66675 21.3334 0.666748 14.0001 0.666748ZM14.0001 24.6667C8.13341 24.6667 3.33341 19.8667 3.33341 14.0001C3.33341 8.13341 8.13341 3.33341 14.0001 3.33341C19.8667 3.33341 24.6667 8.13341 24.6667 14.0001C24.6667 19.8667 19.8667 24.6667 14.0001 24.6667Z"/>
      <path d="M15.7335 12.6667H12.2668C11.6001 12.6667 11.0668 12.1333 11.0668 11.4667C11.0668 10.8 11.6001 10.2667 12.2668 10.2667H17.2001C18.0001 10.2667 18.5335 9.73332 18.5335 8.93332C18.5335 8.13332 18.0001 7.59998 17.2001 7.59998H15.3335V6.39998C15.3335 5.59998 14.8001 5.06665 14.0001 5.06665C13.2001 5.06665 12.6668 5.59998 12.6668 6.39998V7.59998H12.2668C10.1335 7.59998 8.40015 9.33332 8.40015 11.4667C8.40015 13.6 10.1335 15.3333 12.2668 15.3333H15.6001C16.2668 15.3333 16.8001 15.8666 16.8001 16.5333C16.8001 17.2 16.2668 17.7333 15.6001 17.7333H10.6668C9.86681 17.7333 9.33348 18.2667 9.33348 19.0667C9.33348 19.8667 9.86681 20.4 10.6668 20.4H12.6668V21.6C12.6668 22.4 13.2001 22.9333 14.0001 22.9333C14.8001 22.9333 15.3335 22.4 15.3335 21.6V20.4H15.7335C17.8668 20.4 19.6001 18.6667 19.6001 16.5333C19.6001 14.4 17.8668 12.6667 15.7335 12.6667Z"/>
    </symbol>

    <symbol id="icon-spoon" width="32" height="32" viewBox="0 0 32 32">
      <path d="M15.4516 14.106C14.669 13.156 14.2751 11.99 14.2751 10.8241C14.2751 6.50028 19.4561 2.18188 24.6372 2.18188C27.4976 2.18188 29.8183 4.50302 29.8183 7.36396C29.8183 12.546 25.5007 17.7281 21.1724 17.7281C20.0066 17.7281 18.8409 17.334 17.891 16.5513L5.13266 29.3122C4.45804 29.9869 3.36246 29.9869 2.68785 29.3122C2.01323 28.6374 2.01323 27.5416 2.68785 26.8669L15.4516 14.106Z"/>
    </symbol>

  <!-- Social Media Icons -->
    <symbol id="icon-instagram" width="24" height="24" viewBox="0 0 24 24">
      <path d="M17 2H7C4.23858 2 2 4.23858 2 7V17C2 19.7614 4.23858 22 7 22H17C19.7614 22 22 19.7614 22 17V7C22 4.23858 19.7614 2 17 2Z" stroke-width="2" stroke-linecap="round" stroke-linejoin="round"/>
      <path d="M16 11.3701C16.1234 12.2023 15.9812 13.0523 15.5937 13.7991C15.2062 14.5459 14.5931 15.1515 13.8416 15.5297C13.0901 15.908 12.2384 16.0397 11.4077 15.906C10.5771 15.7723 9.80971 15.3801 9.21479 14.7852C8.61987 14.1903 8.22768 13.4229 8.09402 12.5923C7.96035 11.7616 8.09202 10.91 8.47028 10.1584C8.84854 9.40691 9.45414 8.7938 10.2009 8.4063C10.9477 8.0188 11.7977 7.87665 12.63 8.00006C13.4789 8.12594 14.2648 8.52152 14.8716 9.12836C15.4785 9.73521 15.8741 10.5211 16 11.3701Z" stroke-width="2" stroke-linecap="round" stroke-linejoin="round"/>
      <path d="M16 11.3701C16.1234 12.2023 15.9812 13.0523 15.5937 13.7991C15.2062 14.5459 14.5931 15.1515 13.8416 15.5297C13.0901 15.908 12.2384 16.0397 11.4077 15.906C10.5771 15.7723 9.80971 15.3801 9.21479 14.7852C8.61987 14.1903 8.22768 13.4229 8.09402 12.5923C7.96035 11.7616 8.09202 10.91 8.47028 10.1584C8.84854 9.40691 9.45414 8.7938 10.2009 8.4063C10.9477 8.0188 11.7977 7.87665 12.63 8.00006C13.4789 8.12594 14.2648 8.52152 14.8716 9.12836C15.4785 9.73521 15.8741 10.5211 16 11.3701Z" stroke-width="2" stroke-linecap="round" stroke-linejoin="round"/>
      <path d="M17.5 6.5H17.51" stroke-width="2" stroke-linecap="round" stroke-linejoin="round"/>
      <path d="M17.5 6.5H17.51" stroke-width="2" stroke-linecap="round" stroke-linejoin="round"/>    
    </symbol>

    <symbol id="icon-twitter" width="24" height="24" viewBox="0 0 24 24">
      <path d="M23 3.00005C22.0424 3.67552 20.9821 4.19216 19.86 4.53005C19.2577 3.83756 18.4573 3.34674 17.567 3.12397C16.6767 2.90121 15.7395 2.95724 14.8821 3.2845C14.0247 3.61176 13.2884 4.19445 12.773 4.95376C12.2575 5.71308 11.9877 6.61238 12 7.53005V8.53005C10.2426 8.57561 8.50127 8.18586 6.93101 7.39549C5.36074 6.60513 3.51032 4.72313 2.5 3.2845C2.5 3.2845 -1 13 8 17C5.94053 18.398 3.48716 19.099 1 19C10 24 21 19 21 7.50005C20.9991 7.2215 20.9723 6.94364 20.92 6.67005C21.9406 5.66354 22.6608 4.39276 23 3.00005Z" stroke-width="2" stroke-linecap="round" stroke-linejoin="round"/>
    </symbol>

  <!-- Modal Icons -->
    <symbol id="icon-close" width="28" height="28" viewBox="0 0 28 28">
      <path d="M21 7L7 21" stroke-width="2" stroke-linecap="round" stroke-linejoin="round"/>
      <path d="M7 7L21 21" stroke-width="2" stroke-linecap="round" stroke-linejoin="round"/>
    </symbol>

    <symbol id="icon-flag" width="32" height="25" viewBox="0 0 32 25">
      <g clip-path="url(#clip0_14923_7588)">
        <path d="M31.8319 1.05835H0.242798V24.5665H31.8319V1.05835Z" fill="#ffd700"/>
        <path fill-rule="evenodd" clip-rule="evenodd" d="M0.242798 1.05835H31.8319V12.8124H0.242798V1.05835Z" fill="#0057b7"/>
      </g>
      <defs>
        <clipPath id="clip0_14923_7588">
          <rect width="32" height="24" fill="#ffffff" transform="translate(0 0.800049)"/>
        </clipPath>
      </defs>
    </symbol>

    <symbol id="icon-mastercard" width="32" height="20" viewBox="0 0 32 20">
      <path fill-rule="evenodd" clip-rule="evenodd" d="M16 16.8343C14.4022 18.2053 12.3295 19.033 10.0647 19.033C5.01106 19.033 0.914307 14.9122 0.914307 9.82898C0.914307 4.74576 5.01106 0.625 10.0647 0.625C12.3295 0.625 14.4022 1.45267 16 2.82371C17.5979 1.45267 19.6705 0.625 21.9354 0.625C26.989 0.625 31.0857 4.74576 31.0857 9.82898C31.0857 14.9122 26.989 19.033 21.9354 19.033C19.6705 19.033 17.5979 18.2053 16 16.8343Z" fill="#ed0006"/>
      <path fill-rule="evenodd" clip-rule="evenodd" d="M16 16.8343C17.9674 15.1461 19.215 12.6341 19.215 9.82898C19.215 7.02389 17.9674 4.51189 16 2.82371C17.5978 1.45267 19.6705 0.625 21.9354 0.625C26.989 0.625 31.0857 4.74576 31.0857 9.82898C31.0857 14.9122 26.989 19.033 21.9354 19.033C19.6705 19.033 17.5978 18.2053 16 16.8343Z" fill="#f9a000"/>
      <path fill-rule="evenodd" clip-rule="evenodd" d="M16.0001 16.8343C17.9675 15.1462 19.2151 12.6342 19.2151 9.82909C19.2151 7.02402 17.9675 4.51203 16.0001 2.82385C14.0327 4.51203 12.7852 7.02402 12.7852 9.82909C12.7852 12.6342 14.0327 15.1462 16.0001 16.8343Z" fill="#ff5e00"/>
    </symbol>

  <!-- Sliders -->
    <symbol id="icon-ellipse" width="28" height="13" viewBox="0 0 28 13">
      <path d="M21.5 0H6.5C2.91015 0 0 2.91015 0 6.5C0 10.0899 2.91015 13 6.5 13H21.5C25.0899 13 28 10.0899 28 6.5C28 2.91015 25.0899 0 21.5 0Z"/>
    </symbol>

    <symbol id="icon-circle" width="13" height="13" viewBox="0 0 13 13">
      <path d="M6.5 13C10.0899 13 13 10.0899 13 6.5C13 2.91015 10.0899 0 6.5 0C2.91015 0 0 2.91015 0 6.5C0 10.0899 2.91015 13 6.5 13Z" fill-opacity="0.1"/>
    </symbol>

  </defs>
</svg>